<svg aria-hidden="true" style="position: absolute; width: 0; height: 0; overflow: hidden;" version="1.1" xmlns="http://www.w3.org/2000/svg" xmlns:xlink="http://www.w3.org/1999/xlink">
<defs>
<symbol id="icon-facebook" viewBox="0 0 32 32">
<path d="M29.333 16.405c0-7.409-5.969-13.415-13.333-13.415s-13.333 6.006-13.333 13.415c0 6.696 4.876 12.245 11.25 13.252v-9.374h-3.385v-3.878h3.385v-2.955c0-3.362 1.991-5.219 5.036-5.219 1.459 0 2.985 0.262 2.985 0.262v3.301h-1.681c-1.656 0-2.173 1.034-2.173 2.095v2.516h3.698l-0.591 3.878h-3.107v9.374c6.374-1.006 11.25-6.556 11.25-13.252z"></path>
</symbol>
<symbol id="icon-instagram" viewBox="0 0 32 32">
<path d="M15.998 6.161c3.206 0 3.585 0.014 4.846 0.071 1.172 0.052 1.804 0.248 2.226 0.412 0.558 0.216 0.961 0.478 1.378 0.895 0.422 0.422 0.679 0.82 0.9 1.378 0.164 0.422 0.361 1.059 0.412 2.226 0.056 1.266 0.071 1.645 0.071 4.847s-0.014 3.585-0.071 4.847c-0.052 1.172-0.248 1.804-0.412 2.227-0.216 0.558-0.478 0.961-0.895 1.377-0.422 0.422-0.82 0.679-1.378 0.9-0.422 0.164-1.060 0.361-2.226 0.412-1.266 0.056-1.645 0.071-4.847 0.071s-3.585-0.014-4.847-0.071c-1.172-0.052-1.804-0.248-2.226-0.412-0.558-0.216-0.961-0.478-1.378-0.895-0.422-0.422-0.679-0.82-0.9-1.378-0.164-0.422-0.361-1.060-0.412-2.226-0.056-1.266-0.071-1.645-0.071-4.847s0.014-3.585 0.071-4.847c0.052-1.172 0.248-1.804 0.412-2.226 0.216-0.558 0.478-0.961 0.895-1.378 0.422-0.422 0.82-0.679 1.378-0.9 0.422-0.164 1.059-0.361 2.226-0.412 1.261-0.056 1.641-0.071 4.847-0.071h0.001zM15.998 4.001c-3.258 0-3.665 0.014-4.945 0.071-1.275 0.056-2.151 0.262-2.91 0.558-0.792 0.309-1.462 0.717-2.127 1.387-0.67 0.666-1.078 1.336-1.387 2.123-0.295 0.764-0.502 1.636-0.558 2.91-0.056 1.285-0.071 1.692-0.071 4.949s0.014 3.665 0.071 4.945c0.056 1.275 0.262 2.151 0.558 2.91 0.31 0.792 0.717 1.462 1.387 2.127 0.665 0.665 1.336 1.078 2.123 1.383 0.764 0.295 1.636 0.502 2.91 0.558 1.279 0.056 1.687 0.071 4.945 0.071s3.666-0.014 4.945-0.071c1.275-0.056 2.151-0.262 2.91-0.558 0.787-0.305 1.458-0.717 2.123-1.383s1.078-1.336 1.383-2.123c0.295-0.764 0.502-1.635 0.558-2.91 0.056-1.279 0.071-1.687 0.071-4.945s-0.014-3.665-0.071-4.945c-0.056-1.275-0.262-2.151-0.558-2.91-0.295-0.797-0.703-1.467-1.373-2.133-0.665-0.665-1.336-1.078-2.123-1.383-0.764-0.295-1.635-0.502-2.91-0.558-1.284-0.061-1.692-0.075-4.949-0.075l-0.001 0.001z"></path>
<path d="M15.997 9.836c-3.402 0-6.163 2.76-6.163 6.163s2.76 6.163 6.163 6.163c3.403 0 6.163-2.76 6.163-6.163s-2.76-6.163-6.163-6.163zM15.997 19.997c-2.208 0-3.998-1.79-3.998-3.998s1.79-3.998 3.998-3.998c2.208 0 3.998 1.79 3.998 3.998s-1.79 3.998-3.998 3.998z"></path>
<path d="M23.842 9.592c0 0.795-0.644 1.439-1.439 1.439s-1.439-0.644-1.439-1.439 0.644-1.439 1.439-1.439c0.795 0 1.439 0.644 1.439 1.439z"></path>
</symbol>
<symbol id="icon-linkedIn" viewBox="0 0 32 32">
<path d="M25.75 4h-19.5c-1.237 0-2.25 1.013-2.25 2.25v19.5c0 1.237 1.013 2.25 2.25 2.25h19.5c1.237 0 2.25-1.013 2.25-2.25v-19.5c0-1.237-1.013-2.25-2.25-2.25zM13 23.5h-3v-10.5h3v10.5zM11.5 11.5c-0.829 0-1.5-0.671-1.5-1.5s0.671-1.5 1.5-1.5c0.829 0 1.5 0.671 1.5 1.5s-0.671 1.5-1.5 1.5zM23.5 23.5h-3v-6c0-0.829-0.671-1.5-1.5-1.5s-1.5 0.671-1.5 1.5v6h-3v-10.5h3v1.861c0.619-0.848 1.565-1.861 2.625-1.861 1.866 0 3.375 1.679 3.375 3.75v6.75z"></path>
</symbol>
<symbol id="icon-logo" viewBox="0 0 74 32">
<path d="M13.209 2.906c0.323 0.16 0.686 0.621 0.929 0.893 2.090 2.335 3.187 5.309 2.993 8.44-0.188 3.030-1.684 5.72-3.93 7.708-0.425-0.291-0.814-0.704-1.155-1.089-1.908-2.158-2.953-5.189-2.771-8.065 0.188-2.965 1.704-5.932 3.933-7.887z"></path>
<path d="M22.104 7.146c0.006 0.011 0.013 0.021 0.019 0.032 0.119 0.242 0.153 0.627 0.184 0.895 0.157 1.398 0.027 2.8-0.465 4.124-1.229 3.308-4.069 5.742-7.209 7.186-0.037-0-0.012 0.003-0.069-0.030 0.192-0.314 0.46-0.594 0.681-0.889 0.339-0.461 0.645-0.943 0.918-1.445 0.962-1.77 1.422-3.716 1.42-5.724-0-0.57-0.014-1.14-0.178-1.69 0.294-0.327 0.655-0.602 1.006-0.867 1.129-0.854 2.266-1.449 3.693-1.591z"></path>
<path d="M4.274 7.16c0.169 0.007 0.34 0.029 0.508 0.054 1.29 0.196 2.418 0.883 3.426 1.678 0.281 0.222 0.589 0.453 0.801 0.745-0.536 2.752 0.175 5.638 1.598 8.019 0.227 0.378 0.473 0.745 0.736 1.1 0.126 0.169 0.275 0.322 0.388 0.5l-0.040 0.052c-2.347-1.004-4.545-2.779-5.959-4.902-1.484-2.227-1.974-4.626-1.457-7.245z"></path>
<path d="M24.401 13.302c0.374-0.045 1.213-0.092 1.526 0.108 0.016 0.047 0.020 0.052 0.022 0.109 0.006 0.22-0.137 0.548-0.211 0.753-0.498 1.413-1.35 2.675-2.475 3.665-2.202 1.947-5.056 2.645-7.938 2.46-0.544-0.057-1.106-0.095-1.629-0.262 2.415-0.743 4.712-2.26 6.377-4.155 0.409-0.466 0.709-1.007 1.107-1.475 0.756-0.889 2.126-1.124 3.221-1.202z"></path>
<path d="M1.33 13.376c1.125-0.133 2.652 0.053 3.579 0.753 0.551 0.417 0.883 1.19 1.339 1.717 1.424 1.649 3.208 2.95 5.215 3.802 0.427 0.183 0.867 0.374 1.319 0.485l-0.903 0.151c-2.629 0.378-5.354-0.091-7.604-1.554-1.532-0.996-2.611-2.363-3.245-4.067-0.093-0.25-0.232-0.521-0.28-0.782-0.028-0.152-0.003-0.252 0.086-0.381 0.141-0.104 0.325-0.103 0.495-0.123z"></path>
<path d="M47.25 11.104c0.876-0.007 1.832-0.086 2.698 0.041 0.557 0.081 1.122 0.28 1.461 0.758 0.249 0.352 0.33 0.845 0.253 1.265-0.094 0.514-0.42 0.811-0.833 1.088 0.099 0.042 0.197 0.087 0.291 0.138 0.364 0.197 0.622 0.539 0.729 0.938 0.146 0.545 0.029 1.106-0.242 1.589-0.061 0.093-0.133 0.175-0.214 0.251-0.832 0.789-2.655 0.636-3.73 0.626-0.207-0.002-0.479 0.017-0.633-0.14-0.037-0.079-0.052-0.131-0.057-0.22-0.071-1.154-0.006-2.352-0.007-3.51-0-0.82-0.083-1.888 0.024-2.681 0.083-0.103 0.135-0.103 0.259-0.141zM50.186 15.163c-0.464-0.303-1.246-0.215-1.785-0.214l0.002 1.496c0.597 0.004 1.295 0.096 1.824-0.224 0.125-0.184 0.25-0.457 0.214-0.686-0.026-0.166-0.117-0.281-0.255-0.372zM49.965 12.503c-0.443-0.266-1.065-0.199-1.563-0.196v1.436c0.534 0.004 1.172 0.083 1.639-0.219 0.125-0.18 0.247-0.438 0.199-0.665-0.035-0.167-0.133-0.271-0.275-0.356z"></path>
<path d="M39.079 12.658c0.134-0.011 0.268-0.004 0.399 0.021 0.401 0.080 0.596 0.375 0.811 0.69 0.012-0.11 0.021-0.229 0.046-0.336 0.027-0.112 0.088-0.181 0.188-0.235 0.162-0.086 0.51-0.092 0.679-0.029 0.124 0.046 0.261 0.153 0.304 0.283 0.126 0.383 0.077 4.133 0.004 4.645-0.048 0.338-0.153 0.671-0.323 0.967-0.275 0.478-0.742 0.789-1.268 0.932-0.741 0.2-1.583 0.136-2.244-0.262-0.295-0.177-0.433-0.406-0.511-0.735 0.025-0.119 0.054-0.235 0.156-0.312 0.331-0.25 1.046 0.17 1.414 0.238 0.316 0.059 0.658 0.027 0.921-0.172 0.434-0.327 0.505-0.931 0.579-1.43-0.29 0.31-0.566 0.56-0.994 0.665-0.464 0.114-0.972 0.036-1.371-0.229-0.525-0.348-0.818-0.945-0.926-1.551-0.131-0.738-0.017-1.621 0.431-2.239 0.427-0.589 1.014-0.806 1.704-0.911zM39.157 13.788c-0.345 0.13-0.536 0.29-0.684 0.634-0.182 0.423-0.188 1.036-0.009 1.46 0.094 0.224 0.283 0.46 0.52 0.54 0.157 0.053 0.346 0.030 0.508 0.019 0.284-0.102 0.446-0.221 0.581-0.497 0.208-0.424 0.214-1.022 0.056-1.465-0.092-0.257-0.274-0.51-0.531-0.622-0.132-0.057-0.298-0.075-0.44-0.068z"></path>
<path d="M67.765 12.698c0.339-0.045 0.673-0.030 0.993 0.103 0.442 0.183 0.672 0.517 0.847 0.943 0.090-0.225 0.189-0.452 0.348-0.638 0.251-0.296 0.58-0.413 0.961-0.428 0.439-0.017 0.888 0.084 1.21 0.399 0.211 0.207 0.341 0.485 0.412 0.769 0.188 0.757 0.083 2.385 0.086 3.241 0 0.131 0.017 0.545-0.086 0.623-0.174 0.131-0.792 0.102-1.009 0.072-0.127-0.018-0.205-0.086-0.257-0.201-0.081-0.177-0.038-0.493-0.035-0.689 0.008-0.635 0.165-2.39-0.211-2.853-0.086-0.106-0.209-0.173-0.346-0.182-0.202-0.014-0.46 0.056-0.607 0.2-0.521 0.51-0.348 2.324-0.344 3.038 0.001 0.144 0.006 0.302-0.011 0.444-0.008 0.063-0.030 0.136-0.088 0.169-0.222 0.127-0.762 0.108-1.007 0.051-0.128-0.030-0.182-0.073-0.228-0.197-0.075-0.205-0.033-0.509-0.029-0.726 0.011-0.636 0.162-2.218-0.161-2.695-0.097-0.143-0.242-0.23-0.412-0.258-0.193-0.032-0.395-0.006-0.552 0.118-0.633 0.5-0.46 2.251-0.457 2.975 0.001 0.174 0.036 0.423-0.004 0.586-0.016 0.068-0.036 0.109-0.094 0.147-0.204 0.134-0.755 0.105-0.999 0.057-0.102-0.020-0.168-0.083-0.212-0.176-0.062-0.132-0.081-3.938-0.058-4.315 0.006-0.105 0.028-0.217 0.076-0.312 0.062-0.121 0.166-0.2 0.293-0.241 0.301-0.097 0.677 0.010 0.943 0.158 0.064 0.238 0.018 0.549 0.008 0.797 0.031-0.063 0.063-0.126 0.095-0.189 0.235-0.454 0.456-0.639 0.936-0.792z"></path>
<path d="M62.288 12.718c1.402-0.029 2.567 1.075 2.613 2.476s-1.043 2.579-2.443 2.643c-0.921 0.042-1.795-0.415-2.285-1.196s-0.523-1.766-0.085-2.578c0.438-0.812 1.279-1.326 2.201-1.345zM62.116 13.832c-0.377 0.167-0.581 0.359-0.727 0.753-0.174 0.47-0.146 1.128 0.077 1.577 0.121 0.242 0.308 0.439 0.568 0.525 0.178 0.060 0.345 0.069 0.527 0.026 0.361-0.151 0.577-0.344 0.725-0.714 0.186-0.464 0.184-1.083-0.030-1.538-0.134-0.284-0.371-0.519-0.676-0.609-0.149-0.044-0.311-0.034-0.464-0.020z"></path>
<path d="M33.907 12.725c1.411-0.064 2.606 1.027 2.672 2.437s-1.023 2.609-2.433 2.677c-1.413 0.068-2.614-1.024-2.68-2.438s1.027-2.613 2.441-2.677zM34.305 13.865c-0.163-0.056-0.332-0.055-0.501-0.034-0.378 0.187-0.594 0.382-0.738 0.795-0.163 0.468-0.139 1.135 0.096 1.574 0.128 0.24 0.322 0.415 0.584 0.495 0.161 0.049 0.343 0.054 0.507 0.014 0.36-0.15 0.571-0.343 0.716-0.713 0.184-0.469 0.169-1.087-0.044-1.544-0.125-0.269-0.337-0.491-0.621-0.588z"></path>
<path d="M56.552 12.753c0.909-0.147 1.825 0.206 2.402 0.923s0.723 1.689 0.384 2.545c-0.34 0.855-1.112 1.463-2.024 1.59-1.388 0.194-2.674-0.766-2.883-2.152s0.737-2.682 2.121-2.906zM56.76 13.829c-0.379 0.161-0.598 0.345-0.751 0.737-0.18 0.46-0.162 1.098 0.051 1.546 0.129 0.27 0.347 0.492 0.636 0.584 0.144 0.046 0.309 0.046 0.458 0.027 0.378-0.16 0.598-0.338 0.755-0.731 0.182-0.457 0.179-1.087-0.033-1.533-0.126-0.265-0.34-0.488-0.621-0.588-0.158-0.056-0.33-0.055-0.495-0.041z"></path>
<path d="M43.765 12.7c0.32-0.038 0.629-0.032 0.944 0.041 0.479 0.111 0.881 0.39 1.125 0.819 0.131 0.23 0.206 0.483 0.242 0.744 0.056 0.404 0.088 2.957-0.004 3.308-0.077 0.098-0.154 0.134-0.275 0.16-0.205 0.043-0.654 0.070-0.819-0.084-0.144-0.134-0.115-0.413-0.117-0.593-0.24 0.355-0.482 0.641-0.918 0.75-0.488 0.121-0.94-0.021-1.36-0.263-0.179-0.165-0.315-0.334-0.392-0.568-0.13-0.395-0.088-0.927 0.114-1.291 0.49-0.882 1.645-0.829 2.489-1.078l0.052-0.016c-0.034-0.105-0.067-0.213-0.111-0.315-0.478-1.101-1.669 0.102-2.245-0.201-0.116-0.061-0.2-0.185-0.23-0.311-0.039-0.168 0.006-0.276 0.097-0.415 0.309-0.472 0.889-0.591 1.405-0.689zM44.791 15.644c-0.351 0.096-1.009 0.203-1.219 0.521-0.068 0.104-0.074 0.24-0.030 0.355 0.031 0.081 0.092 0.151 0.146 0.218 0.363 0.024 0.59-0.002 0.867-0.254 0.168-0.153 0.322-0.4 0.314-0.637-0.002-0.059-0.019-0.119-0.032-0.176l-0.047-0.027z"></path>
<path d="M29.448 13.649c0.126-0.399 1.104-2.311 1.416-2.49 0.162-0.093 1.026-0.107 1.2-0.028 0.111 0.051 0.123 0.081 0.174 0.185-0.089 0.495-1.182 2.155-1.506 2.697l-0.568 0.945c0.002 0.568 0.102 2.301-0.096 2.712-0.070 0.053-0.119 0.083-0.206 0.103-0.267 0.062-0.797 0.044-1.033-0.104-0.182-0.24-0.087-2.23-0.087-2.67-0.291-0.464-2.165-3.457-2.115-3.743 0.062-0.089 0.102-0.111 0.202-0.151 0.316-0.009 0.959-0.093 1.221 0.066 0.339 0.206 1.271 2.058 1.397 2.478z"></path>
<path d="M52.659 11.104c0.332-0.009 0.874-0.091 1.16 0.080 0.080 0.546 0.049 1.124 0.050 1.675l0.003 2.551c0 0.666 0.073 1.468-0.013 2.122-0.017 0.13-0.097 0.173-0.192 0.247-0.346 0.011-0.877 0.097-1.161-0.128-0.067-0.255-0.109-6.145-0.045-6.378 0.031-0.11 0.103-0.123 0.196-0.17z"></path>
<path d="M13.345 20.311c0.457 0.163 0.918 0.293 1.398 0.371 0.827 0.134 1.787 0.095 2.53 0.525 0.549 0.318 1.11 1.063 1.265 1.681 0.028 0.113 0.020 0.123-0.038 0.217-0.574 0.207-1.131 0.158-1.703-0.029-1.376-0.45-2.778-1.453-3.452-2.764z"></path>
<path d="M13.086 20.314c0.029-0.003 0.057 0.013 0.085 0.021-0.001 0.013-0.001 0.027-0.004 0.040-0.071 0.293-1.203 1.487-1.465 1.694-0.904 0.714-2.246 1.28-3.412 1.141-0.031-0.007-0.075-0.015-0.103-0.028-0.063-0.029-0.103-0.052-0.119-0.12-0.044-0.182 0.059-0.394 0.142-0.552 0.267-0.511 0.685-1.11 1.209-1.386 0.646-0.34 1.6-0.338 2.318-0.466 0.46-0.082 0.903-0.206 1.349-0.343z"></path>
</symbol>
<symbol id="icon-hamburger-menu" viewBox="0 0 32 32">
<path d="M5.333 8h21.333v2.667h-21.333v-2.667zM5.333 14.667h21.333v2.667h-21.333v-2.667zM5.333 21.333h21.333v2.667h-21.333v-2.667z"></path>
</symbol>
<symbol id="icon-close-button" viewBox="0 0 32 32">
<path d="M21.589 8.459l-5.657 5.656-5.656-5.656-1.885 1.885 5.656 5.656-5.656 5.656 1.885 1.885 5.656-5.656 5.657 5.656 1.885-1.885-5.656-5.656 5.656-5.656-1.885-1.885z"></path>
</symbol>
<symbol id="icon-youtube" viewBox="0 0 32 32">
<path d="M28.791 9.604c-0.152-0.563-0.449-1.077-0.861-1.49s-0.925-0.711-1.489-0.864c-2.088-0.573-10.441-0.583-10.441-0.583s-8.352-0.009-10.441 0.539c-0.563 0.16-1.075 0.462-1.487 0.878s-0.711 0.929-0.867 1.493c-0.551 2.088-0.556 6.419-0.556 6.419s-0.005 4.352 0.541 6.419c0.307 1.143 1.207 2.045 2.351 2.353 2.109 0.573 10.44 0.583 10.44 0.583s8.353 0.009 10.441-0.537c0.563-0.153 1.077-0.45 1.49-0.862s0.712-0.925 0.866-1.488c0.552-2.087 0.556-6.416 0.556-6.416s0.027-4.353-0.543-6.441zM13.328 20.007l0.007-8 6.943 4.007-6.949 3.993z"></path>
</symbol>
<symbol id="icon-checkmark" viewBox="0 0 31 32">
<path d="M26.045 10.322l-13.568 13.568c-0.116 0.117-0.277 0.189-0.454 0.189s-0.338-0.072-0.454-0.189l-6.899-6.899c-0.117-0.116-0.189-0.277-0.189-0.454s0.072-0.338 0.189-0.454l0.896-0.896c0.116-0.117 0.277-0.189 0.454-0.189s0.338 0.072 0.454 0.189l5.542 5.542 12.224-12.224c0.117-0.114 0.278-0.184 0.454-0.184s0.337 0.070 0.455 0.184l-0-0 0.896 0.909c0.117 0.116 0.189 0.277 0.189 0.454s-0.072 0.338-0.189 0.454l-0 0z"></path>
</symbol>
</defs>
</svg>
