<svg width="84" height="36" viewBox="0 0 84 36" fill="none" xmlns="http://www.w3.org/2000/svg">
<g clip-path="url(#clip0_8228_162064)">
<path d="M14.7722 2.85989C15.1454 3.04525 15.565 3.57755 15.8468 3.8923C18.2637 6.59225 19.5315 10.031 19.3072 13.6509C19.0902 17.1538 17.3602 20.2642 14.7637 22.563C14.272 22.2269 13.8221 21.7485 13.4288 21.3038C11.223 18.8091 10.0139 15.3041 10.2246 11.9788C10.4417 8.55047 12.1942 5.12 14.7722 2.85989Z" fill="#0D0B0A"/>
<path d="M25.0582 7.76266C25.0653 7.77479 25.0735 7.78644 25.0797 7.7991C25.2172 8.07921 25.257 8.52363 25.2919 8.83453C25.4736 10.4513 25.3232 12.0723 24.7546 13.6031C23.334 17.4276 20.0503 20.2428 16.4197 21.9117C16.3769 21.9112 16.4056 21.9146 16.3403 21.8766C16.5622 21.5137 16.8716 21.1893 17.1276 20.8483C17.5191 20.3158 17.8739 19.7576 18.1894 19.1774C19.3015 17.1309 19.8334 14.8803 19.8317 12.5592C19.8313 11.9 19.8162 11.2416 19.6254 10.6053C19.9659 10.2275 20.3831 9.90897 20.7881 9.60251C22.0932 8.61483 23.4082 7.92747 25.0582 7.76266Z" fill="#0D0B0A"/>
<path d="M4.44035 7.77867C4.63628 7.78622 4.83396 7.81165 5.02774 7.84113C6.51914 8.06804 7.82405 8.86223 8.98911 9.78137C9.31427 10.0379 9.67004 10.3054 9.91488 10.6425C9.29542 13.825 10.117 17.162 11.7626 19.9144C12.0254 20.3519 12.3093 20.7762 12.6134 21.1863C12.7585 21.3817 12.9313 21.559 13.0615 21.7641L13.0154 21.824C10.3021 20.6636 7.76028 18.6103 6.12513 16.1561C4.4097 13.5811 3.84247 10.8074 4.44035 7.77867Z" fill="#0D0B0A"/>
<path d="M27.7125 14.8808C28.1451 14.8291 29.1147 14.7746 29.4773 15.0055C29.4956 15.06 29.5011 15.0654 29.503 15.1317C29.5102 15.3855 29.3444 15.7654 29.2584 16.0022C28.683 17.6361 27.6978 19.0951 26.3972 20.2394C23.8513 22.4905 20.5513 23.2981 17.2185 23.0838C16.589 23.018 15.94 22.9742 15.335 22.7813C18.1273 21.9224 20.7835 20.1678 22.708 17.9766C23.1811 17.4378 23.5279 16.8123 23.9882 16.2706C24.8618 15.2422 26.4459 14.9704 27.7125 14.8808Z" fill="#0D0B0A"/>
<path d="M1.03684 14.966C2.3381 14.8126 4.1038 15.0269 5.17562 15.837C5.81285 16.3188 6.19686 17.2132 6.72352 17.8221C8.37045 19.7293 10.4332 21.2331 12.7528 22.2176C13.2467 22.4291 13.7552 22.6497 14.2775 22.7783L13.2335 22.9528C10.1933 23.3902 7.04279 22.847 4.44149 21.1557C2.67004 20.0036 1.42275 18.4238 0.689454 16.4533C0.581795 16.1644 0.420648 15.8507 0.3656 15.5496C0.333449 15.3738 0.361752 15.2578 0.46449 15.1087C0.628025 14.9884 0.840615 14.9899 1.03684 14.966Z" fill="#0D0B0A"/>
<path d="M54.132 12.3383C55.1452 12.3299 56.2505 12.2392 57.2511 12.3852C57.8951 12.4791 58.5489 12.7101 58.9406 13.2621C59.2284 13.6686 59.3226 14.2385 59.2335 14.724C59.1244 15.3182 58.7484 15.6619 58.2716 15.9819C58.386 16.0301 58.498 16.0836 58.6075 16.142C59.0288 16.37 59.3271 16.7643 59.4503 17.225C59.6189 17.8549 59.4838 18.5042 59.17 19.0629C59.0995 19.1698 59.0168 19.264 58.924 19.352C57.9624 20.2644 55.8532 20.0883 54.6105 20.0766C54.3713 20.0746 54.0573 20.0951 53.879 19.9135C53.8357 19.8225 53.8175 19.7633 53.8116 19.6606C53.7298 18.3259 53.8043 16.941 53.8038 15.602C53.8033 14.6535 53.7084 13.4181 53.8322 12.5014C53.9276 12.382 53.9883 12.3826 54.132 12.3383ZM57.5265 17.0326C56.9898 16.6825 56.0861 16.7836 55.463 16.7846L55.4659 18.5141C56.1561 18.519 56.9621 18.6245 57.5743 18.2543C57.7184 18.042 57.8631 17.7267 57.8214 17.4623C57.7912 17.2701 57.6861 17.1369 57.5265 17.0326ZM57.2706 13.9574C56.7588 13.6494 56.0407 13.7268 55.465 13.7299V15.3901C56.0825 15.395 56.8189 15.4867 57.3585 15.1381C57.5037 14.9301 57.644 14.6311 57.589 14.3686C57.5491 14.1761 57.4346 14.0561 57.2706 13.9574Z" fill="#0D0B0A"/>
<path d="M44.6848 14.136C44.8391 14.1232 44.9948 14.1312 45.1467 14.1604C45.6102 14.2533 45.8363 14.5945 46.0842 14.9583C46.0983 14.8311 46.1082 14.6938 46.1379 14.5696C46.1686 14.4401 46.2392 14.3604 46.3557 14.2981C46.5428 14.1985 46.9451 14.1921 47.1408 14.2649C47.2839 14.3182 47.4431 14.4423 47.4924 14.592C47.638 15.0349 47.5815 19.3703 47.4973 19.9631C47.4417 20.3537 47.3204 20.739 47.1233 21.0813C46.8056 21.6337 46.2649 21.9938 45.6574 22.1585C44.801 22.3898 43.827 22.3161 43.0627 21.8557C42.7217 21.6506 42.562 21.3866 42.4719 21.0061C42.5006 20.8687 42.5347 20.7349 42.6525 20.6458C43.0354 20.3565 43.8625 20.8421 44.2873 20.9212C44.6532 20.9889 45.0478 20.9519 45.3518 20.7219C45.853 20.3439 45.936 19.6449 46.0217 19.0686C45.686 19.4272 45.3672 19.7159 44.8723 19.8372C44.336 19.969 43.7485 19.8784 43.2873 19.5725C42.6799 19.1701 42.3412 18.4795 42.217 17.7786C42.0656 16.9252 42.1978 15.9043 42.715 15.1897C43.2085 14.509 43.8873 14.2581 44.6848 14.136ZM44.7756 15.4426C44.3763 15.5931 44.1555 15.7781 43.9846 16.176C43.7737 16.6651 43.7678 17.374 43.9738 17.8645C44.0825 18.1232 44.3007 18.396 44.5754 18.4885C44.7566 18.5493 44.9758 18.5232 45.1623 18.51C45.4911 18.3926 45.6783 18.2539 45.8342 17.9348C46.0742 17.4443 46.0817 16.7528 45.8986 16.2405C45.7925 15.9429 45.5824 15.6504 45.2844 15.5217C45.1319 15.456 44.9402 15.4344 44.7756 15.4426Z" fill="#0D0B0A"/>
<path d="M77.8532 14.1822C78.2454 14.1302 78.6317 14.1478 79.0019 14.3012C79.5134 14.513 79.7789 14.8988 79.9816 15.3913C80.0853 15.1312 80.1998 14.8691 80.3834 14.6538C80.6738 14.3121 81.0542 14.1762 81.4946 14.1593C82.0017 14.1398 82.5215 14.2563 82.8937 14.6206C83.1382 14.8603 83.2883 15.1813 83.3701 15.5102C83.5879 16.386 83.4661 18.2679 83.469 19.2578C83.4695 19.4093 83.4885 19.8881 83.3701 19.9778C83.1684 20.1297 82.4543 20.0961 82.2029 20.0606C82.0563 20.0401 81.9657 19.9612 81.9053 19.8282C81.8122 19.6236 81.8619 19.2582 81.8649 19.0317C81.8746 18.2976 82.0553 16.2686 81.6208 15.7333C81.5209 15.6105 81.3797 15.5335 81.2204 15.5223C80.9865 15.5058 80.6889 15.5866 80.5189 15.7532C79.9168 16.3432 80.1165 18.4408 80.1214 19.2656C80.1228 19.4322 80.1287 19.6143 80.1082 19.7795C80.099 19.8526 80.0736 19.9373 80.0069 19.9753C79.7502 20.1224 79.1256 20.1005 78.8426 20.0343C78.695 19.9997 78.6322 19.95 78.5795 19.8068C78.4923 19.5695 78.5411 19.2183 78.5455 18.9674C78.5586 18.2318 78.733 16.4026 78.3589 15.8512C78.2463 15.6855 78.0793 15.5847 77.8824 15.5525C77.6588 15.516 77.426 15.5457 77.2438 15.6894C76.5116 16.2672 76.7118 18.2922 76.7152 19.1292C76.7162 19.3303 76.7571 19.6182 76.7104 19.8063C76.6914 19.8847 76.6685 19.9325 76.6013 19.9768C76.366 20.1312 75.7278 20.0981 75.4462 20.0426C75.3279 20.0192 75.2524 19.9466 75.2012 19.8394C75.1291 19.6869 75.1077 15.2861 75.1345 14.8501C75.1418 14.7288 75.1671 14.5992 75.2226 14.4899C75.2942 14.3497 75.4141 14.2584 75.5612 14.2108C75.9095 14.0984 76.344 14.2229 76.6519 14.3939C76.726 14.6689 76.6729 15.0289 76.6612 15.3158C76.6972 15.2427 76.7338 15.1696 76.7713 15.0975C77.0431 14.5724 77.2984 14.3584 77.8532 14.1822Z" fill="#0D0B0A"/>
<path d="M71.5213 14.2051C73.1419 14.1717 74.4883 15.4478 74.5418 17.0684C74.5953 18.6885 73.3363 20.0505 71.7167 20.1241C70.6513 20.1727 69.6416 19.6443 69.0741 18.7412C68.507 17.8376 68.4698 16.6985 68.9764 15.7598C69.4826 14.8208 70.4551 14.2272 71.5213 14.2051ZM71.3211 15.4932C70.8858 15.6866 70.6488 15.9084 70.4803 16.3633C70.2788 16.9074 70.312 17.6673 70.5702 18.1866C70.7095 18.4661 70.9249 18.6936 71.2254 18.794C71.4315 18.8631 71.6249 18.8739 71.8358 18.8242C72.2531 18.6494 72.5023 18.4266 72.6737 17.9991C72.8885 17.4627 72.8865 16.7454 72.6395 16.2198C72.4851 15.8912 72.2107 15.621 71.8583 15.5166C71.6858 15.4655 71.498 15.4771 71.3211 15.4932Z" fill="#0D0B0A"/>
<path d="M38.7052 14.2133C40.3363 14.1398 41.7189 15.401 41.7951 17.0317C41.8716 18.6631 40.6116 20.048 38.9806 20.1264C37.3463 20.2049 35.9584 18.9428 35.882 17.3081C35.8058 15.6737 37.0706 14.2872 38.7052 14.2133ZM39.1652 15.5317C38.9763 15.4671 38.7818 15.4688 38.5861 15.4936C38.1494 15.7094 37.8994 15.9343 37.7326 16.4116C37.544 16.9523 37.5719 17.7244 37.8439 18.2319C37.9924 18.5091 38.2175 18.7116 38.5207 18.8042C38.7065 18.861 38.9167 18.8669 39.1056 18.8217C39.5219 18.6489 39.7663 18.4245 39.9338 17.9975C40.1463 17.4558 40.1297 16.7404 39.8839 16.2114C39.7397 15.9006 39.4934 15.6442 39.1652 15.5317Z" fill="#0D0B0A"/>
<path d="M64.8874 14.2458C65.9381 14.0759 66.9988 14.484 67.6657 15.3132C68.3319 16.1428 68.5012 17.2664 68.1091 18.2556C67.7164 19.2445 66.8229 19.9474 65.7692 20.0945C64.1642 20.3189 62.6778 19.2088 62.4362 17.6062C62.1942 16.0035 63.2876 14.5048 64.8874 14.2458ZM65.1286 15.49C64.6902 15.6766 64.4378 15.8885 64.2604 16.3425C64.0526 16.8748 64.0732 17.6114 64.319 18.1287C64.4676 18.4409 64.7203 18.6982 65.0544 18.8044C65.2215 18.858 65.4112 18.8571 65.5837 18.8357C66.0211 18.6511 66.2755 18.4445 66.4567 17.99C66.6672 17.4619 66.6637 16.7334 66.4186 16.2175C66.273 15.9113 66.026 15.6529 65.7019 15.5378C65.5187 15.473 65.3201 15.4739 65.1286 15.49Z" fill="#0D0B0A"/>
<path d="M50.1029 14.1848C50.473 14.1409 50.8299 14.1482 51.1947 14.2327C51.7486 14.3611 52.2129 14.6831 52.4955 15.18C52.6465 15.4459 52.7339 15.7383 52.7758 16.0403C52.8405 16.5073 52.877 19.4594 52.7709 19.8655C52.6818 19.9793 52.5922 20.0204 52.4535 20.0501C52.2167 20.1003 51.6977 20.1307 51.5062 19.9534C51.3392 19.799 51.3734 19.4759 51.3715 19.2679C51.0938 19.678 50.8145 20.0088 50.3099 20.135C49.7463 20.2753 49.2234 20.1105 48.7377 19.8304C48.531 19.6397 48.3737 19.4445 48.2845 19.1741C48.1346 18.7178 48.1827 18.1023 48.4164 17.6819C48.9829 16.6623 50.3181 16.7232 51.2943 16.4358L51.3549 16.4173C51.3155 16.2953 51.2774 16.1707 51.2269 16.053C50.6746 14.7794 49.2973 16.1706 48.6312 15.8206C48.4968 15.75 48.3997 15.6069 48.3656 15.4612C48.32 15.2675 48.3723 15.1424 48.4779 14.9817C48.8355 14.4362 49.5057 14.2987 50.1029 14.1848ZM51.2894 17.5882C50.8836 17.6997 50.1223 17.8225 49.8802 18.1907C49.8016 18.311 49.795 18.4685 49.8461 18.6009C49.8821 18.6942 49.9527 18.776 50.015 18.8528C50.4344 18.8811 50.6974 18.8502 51.0179 18.5589C51.2123 18.3816 51.3905 18.0968 51.3812 17.8225C51.3788 17.7544 51.3597 17.6852 51.3441 17.6194L51.2894 17.5882Z" fill="#0D0B0A"/>
<path d="M33.5487 15.2812C33.694 14.8194 34.8252 12.6097 35.1856 12.4022C35.3728 12.2944 36.3722 12.278 36.5729 12.3698C36.7017 12.4288 36.7156 12.4636 36.774 12.5839C36.6711 13.156 35.407 15.0761 35.033 15.7021L34.3761 16.7943C34.3787 17.4509 34.4942 19.4551 34.2653 19.9305C34.1849 19.9919 34.1281 20.026 34.0276 20.0494C33.7193 20.1215 33.1055 20.1 32.8336 19.929C32.6231 19.6519 32.7332 17.3511 32.7336 16.842C32.3977 16.3052 30.2306 12.8449 30.2878 12.5144C30.3594 12.4114 30.4056 12.3856 30.5216 12.34C30.8871 12.3292 31.6304 12.2323 31.9329 12.4159C32.3253 12.6542 33.4028 14.795 33.5487 15.2812Z" fill="#0D0B0A"/>
<path d="M60.3862 12.339C60.7695 12.3291 61.397 12.2332 61.7278 12.4313C61.8208 13.0629 61.7843 13.7313 61.7857 14.3683L61.7896 17.3184C61.7896 18.0886 61.8744 19.0156 61.775 19.7717C61.7555 19.9222 61.6625 19.9714 61.5534 20.0576C61.1539 20.0708 60.5396 20.1697 60.2108 19.91C60.1333 19.6148 60.0846 12.8047 60.1591 12.5357C60.1947 12.4083 60.2785 12.3937 60.3862 12.339Z" fill="#0D0B0A"/>
<path d="M14.929 22.9844C15.4579 23.1725 15.9901 23.323 16.5449 23.4131C17.5008 23.568 18.6113 23.5227 19.4701 24.0206C20.1043 24.3884 20.7537 25.2496 20.9329 25.9638C20.9658 26.0948 20.9563 26.1056 20.8891 26.2142C20.2254 26.4534 19.5808 26.3964 18.9203 26.1801C17.3294 25.6598 15.7077 24.5004 14.929 22.9844Z" fill="#0D0B0A"/>
<path d="M14.6298 22.9883C14.6634 22.9854 14.6956 23.0029 14.728 23.0122C14.7263 23.0273 14.7266 23.0429 14.723 23.058C14.6413 23.3965 13.3316 24.7771 13.0292 25.0163C11.9841 25.8415 10.4324 26.4967 9.08419 26.3355C9.04814 26.3277 8.99806 26.3179 8.96523 26.3028C8.89264 26.2692 8.84666 26.2424 8.82751 26.164C8.77641 25.9531 8.8963 25.7085 8.99217 25.5253C9.30102 24.9349 9.78465 24.2422 10.3906 23.9231C11.1374 23.5305 12.2402 23.532 13.0702 23.3843C13.6019 23.2898 14.1143 23.1456 14.6298 22.9883Z" fill="#0D0B0A"/>
</g>
<defs>
<clipPath id="clip0_8228_162064">
<rect width="83.147" height="23.5097" fill="white" transform="translate(0.353027 2.85989)"/>
</clipPath>
</defs>
</svg>
